<svg id="vuesax_bold_ethereum-classic-_etc_" data-name="vuesax/bold/ethereum-classic-(etc)" xmlns="http://www.w3.org/2000/svg" width="24" height="24" viewBox="0 0 24 24">
  <g id="ethereum-classic-_etc_" data-name="ethereum-classic-(etc)">
    <path id="BG_193" data-name="BG 193" d="M0,0H24V24H0Z" fill="none"/>
    <path id="Vector" d="M.625,7.105l4.77-2.12a.816.816,0,0,1,.65,0l4.77,2.12a.44.44,0,0,0,.52-.68l-5-6.11a.768.768,0,0,0-1.24,0l-5,6.11A.445.445,0,0,0,.625,7.105Z" transform="translate(6.275 1.995)" fill="#f24535"/>
    <path id="Vector-2" data-name="Vector" d="M.617.041,5.4,2.161a.816.816,0,0,0,.65,0l4.78-2.12a.44.44,0,0,1,.52.68l-5,6.11a.768.768,0,0,1-1.24,0l-5-6.11A.435.435,0,0,1,.617.041Z" transform="translate(6.283 14.859)" fill="#f24535"/>
    <path id="Vector-3" data-name="Vector" d="M4.408.053.278,2.113a.5.5,0,0,0,0,.89l4.13,2.06a.508.508,0,0,0,.45,0L8.987,3a.5.5,0,0,0,0-.89L4.857.053A.508.508,0,0,0,4.408.053Z" transform="translate(7.372 9.438)" fill="#f24535"/>
    <path id="Vector-4" data-name="Vector" d="M0,0H24V24H0Z" fill="none" opacity="0"/>
  </g>
</svg>
