<svg xmlns="http://www.w3.org/2000/svg" width="119.68" height="40.436" viewBox="0 0 119.68 40.436">
  <path id="Path_393" data-name="Path 393" d="M-.044,0,13.332-31.24h6.336L33.044,0h-7.3L22.968-6.6H10.032L7.26,0ZM16.5-22.044l-3.96,9.372h7.876ZM42.372,9.2H35.728V-22h6.644v2.2A5.871,5.871,0,0,1,44.7-21.67a8.053,8.053,0,0,1,3.652-.814A9.275,9.275,0,0,1,55.594-19.1a11.87,11.87,0,0,1,2.97,8.1,11.87,11.87,0,0,1-2.97,8.1A9.275,9.275,0,0,1,48.356.484,8.052,8.052,0,0,1,44.7-.33,5.871,5.871,0,0,1,42.372-2.2Zm.858-16.28a4.652,4.652,0,0,0,3.63,1.54,4.652,4.652,0,0,0,3.63-1.54A5.632,5.632,0,0,0,51.876-11a5.632,5.632,0,0,0-1.386-3.916,4.652,4.652,0,0,0-3.63-1.54,4.652,4.652,0,0,0-3.63,1.54A5.632,5.632,0,0,0,41.844-11,5.632,5.632,0,0,0,43.23-7.084ZM73.04.484a11.392,11.392,0,0,1-8.382-3.256,11.167,11.167,0,0,1-3.278-8.272A10.983,10.983,0,0,1,64.7-19.228a11.43,11.43,0,0,1,8.338-3.256,12.372,12.372,0,0,1,4.554.836,11.434,11.434,0,0,1,3.784,2.42,10.681,10.681,0,0,1,2.574,4.092,15.106,15.106,0,0,1,.836,5.676H67.848a4.411,4.411,0,0,0,1.584,3.014,5.891,5.891,0,0,0,3.96,1.21,5.82,5.82,0,0,0,2.64-.594A3.2,3.2,0,0,0,77.616-7.3h6.952a10.294,10.294,0,0,1-4.224,5.632A12.67,12.67,0,0,1,73.04.484ZM72.864-17.2a5,5,0,0,0-3.146.968,4.731,4.731,0,0,0-1.694,2.552H77.44a4.406,4.406,0,0,0-1.782-2.662A4.972,4.972,0,0,0,72.864-17.2ZM97.812.484a11.547,11.547,0,0,1-7.238-2.178A7.159,7.159,0,0,1,87.56-7.172h7a2.473,2.473,0,0,0,1.056,1.958,4.1,4.1,0,0,0,2.42.682q2.464,0,2.464-1.408a1.224,1.224,0,0,0-.55-1.078,7.3,7.3,0,0,0-1.958-.77L93.544-8.932Q88-10.384,88-15.84a5.731,5.731,0,0,1,2.464-4.8A10.984,10.984,0,0,1,97.2-22.484a10.332,10.332,0,0,1,6.314,1.87,6.869,6.869,0,0,1,2.794,5.258H99.616a2.314,2.314,0,0,0-2.552-2.024q-2.244,0-2.244,1.408,0,1.232,2.244,1.716l4,1.056a9.33,9.33,0,0,1,4.752,2.552,6.4,6.4,0,0,1,1.452,4.356,5.751,5.751,0,0,1-2.64,4.906A11.534,11.534,0,0,1,97.812.484ZM118.25-1.034A4.532,4.532,0,0,1,114.928.352a4.532,4.532,0,0,1-3.322-1.386,4.532,4.532,0,0,1-1.386-3.322,4.532,4.532,0,0,1,1.386-3.322,4.532,4.532,0,0,1,3.322-1.386,4.532,4.532,0,0,1,3.322,1.386,4.532,4.532,0,0,1,1.386,3.322A4.532,4.532,0,0,1,118.25-1.034Z" transform="translate(0.044 31.24)" fill="#f24535"/>
</svg>
