<svg xmlns="http://www.w3.org/2000/svg" width="15.237" height="15.237" viewBox="0 0 15.237 15.237">
  <g id="Group_1223" data-name="Group 1223" transform="translate(-49.445 -1754.015)">
    <path id="BG_193" data-name="BG 193" d="M0,0H15.237V15.237H0Z" transform="translate(49.445 1754.015)" fill="none"/>
    <path id="Vector" d="M.4,4.511,3.425,3.165a.518.518,0,0,1,.413,0L6.866,4.511a.28.28,0,0,0,.33-.432L4.022.2a.487.487,0,0,0-.787,0L.06,4.079A.283.283,0,0,0,.4,4.511Z" transform="translate(53.429 1755.282)" fill="#f24535"/>
    <path id="Vector-2" data-name="Vector" d="M.392.026,3.427,1.372a.518.518,0,0,0,.413,0L6.874.026A.28.28,0,0,1,7.2.458L4.03,4.337a.487.487,0,0,1-.787,0L.068.458A.276.276,0,0,1,.392.026Z" transform="translate(53.434 1763.449)" fill="#f24535"/>
    <path id="Vector-3" data-name="Vector" d="M2.8.033.176,1.341a.315.315,0,0,0,0,.565L2.8,3.214a.323.323,0,0,0,.286,0L5.706,1.906a.315.315,0,0,0,0-.565L3.084.033A.323.323,0,0,0,2.8.033Z" transform="translate(54.126 1760.007)" fill="#f24535"/>
    <path id="Vector-4" data-name="Vector" d="M0,0H15.237V15.237H0Z" transform="translate(49.445 1754.015)" fill="none" opacity="0"/>
  </g>
</svg>
