<svg xmlns="http://www.w3.org/2000/svg" width="106.08" height="35.841" viewBox="0 0 106.08 35.841">
  <path id="Path_392" data-name="Path 392" d="M-.039,0,11.817-27.69h5.616L29.289,0H22.815L20.358-5.85H8.892L6.435,0ZM14.625-19.539l-3.51,8.307H18.1ZM37.557,8.151H31.668V-19.5h5.889v1.95a5.2,5.2,0,0,1,2.067-1.658,7.138,7.138,0,0,1,3.237-.721,8.221,8.221,0,0,1,6.416,3A10.521,10.521,0,0,1,51.909-9.75a10.521,10.521,0,0,1-2.632,7.176,8.221,8.221,0,0,1-6.416,3,7.137,7.137,0,0,1-3.237-.722A5.2,5.2,0,0,1,37.557-1.95Zm.761-14.43a4.124,4.124,0,0,0,3.217,1.365,4.124,4.124,0,0,0,3.218-1.365A4.992,4.992,0,0,0,45.981-9.75a4.992,4.992,0,0,0-1.229-3.471,4.124,4.124,0,0,0-3.218-1.365,4.124,4.124,0,0,0-3.217,1.365A4.992,4.992,0,0,0,37.089-9.75,4.992,4.992,0,0,0,38.318-6.279ZM64.74.429a10.1,10.1,0,0,1-7.43-2.886A9.9,9.9,0,0,1,54.4-9.789a9.735,9.735,0,0,1,2.944-7.254,10.131,10.131,0,0,1,7.39-2.886,10.966,10.966,0,0,1,4.036.741,10.135,10.135,0,0,1,3.354,2.145,9.468,9.468,0,0,1,2.282,3.627,13.39,13.39,0,0,1,.741,5.031H60.138a3.91,3.91,0,0,0,1.4,2.672,5.222,5.222,0,0,0,3.51,1.072,5.159,5.159,0,0,0,2.34-.527,2.833,2.833,0,0,0,1.4-1.306h6.162a9.124,9.124,0,0,1-3.744,4.992A11.23,11.23,0,0,1,64.74.429Zm-.156-15.678a4.428,4.428,0,0,0-2.789.858,4.194,4.194,0,0,0-1.5,2.262H68.64a3.905,3.905,0,0,0-1.579-2.359A4.407,4.407,0,0,0,64.584-15.249ZM86.7.429A10.235,10.235,0,0,1,80.282-1.5,6.345,6.345,0,0,1,77.61-6.357h6.2a2.192,2.192,0,0,0,.936,1.735,3.633,3.633,0,0,0,2.145.6q2.184,0,2.184-1.248a1.085,1.085,0,0,0-.488-.955A6.473,6.473,0,0,0,86.853-6.9L82.914-7.917Q78-9.2,78-14.04a5.08,5.08,0,0,1,2.184-4.251,9.736,9.736,0,0,1,5.967-1.638,9.158,9.158,0,0,1,5.6,1.657,6.088,6.088,0,0,1,2.476,4.661H88.3a2.051,2.051,0,0,0-2.262-1.794q-1.989,0-1.989,1.248,0,1.092,1.989,1.521l3.549.936a8.27,8.27,0,0,1,4.212,2.262,5.677,5.677,0,0,1,1.287,3.861,5.1,5.1,0,0,1-2.34,4.349A10.224,10.224,0,0,1,86.7.429ZM104.813-.917A4.017,4.017,0,0,1,101.868.312,4.017,4.017,0,0,1,98.924-.917a4.017,4.017,0,0,1-1.229-2.945,4.017,4.017,0,0,1,1.229-2.944,4.017,4.017,0,0,1,2.945-1.229,4.017,4.017,0,0,1,2.944,1.229,4.017,4.017,0,0,1,1.229,2.944A4.017,4.017,0,0,1,104.813-.917Z" transform="translate(0.039 27.69)" fill="#f24535"/>
</svg>
