<svg id="Twitter" xmlns="http://www.w3.org/2000/svg" width="34.783" height="34.783" viewBox="0 0 34.783 34.783">
  <path id="back" d="M0,17.391A17.391,17.391,0,1,1,17.391,34.783,17.391,17.391,0,0,1,0,17.391Z" fill="#55acee"/>
  <path id="Shape" d="M8.175,3.7l.036.6L7.6,4.229A9.894,9.894,0,0,1,1.813,1.38l-.8-.8L.8,1.171a3.544,3.544,0,0,0,.754,3.635c.487.516.377.589-.462.282a1.435,1.435,0,0,0-.572-.135A4.4,4.4,0,0,0,.961,6.6,3.928,3.928,0,0,0,2.628,8.171l.6.282-.706.012c-.681,0-.706.012-.633.27A3.677,3.677,0,0,0,4.16,10.751l.754.258-.657.393A6.849,6.849,0,0,1,1,12.31a3.6,3.6,0,0,0-1,.1,9.255,9.255,0,0,0,2.348,1.081,10.276,10.276,0,0,0,7.98-.909,10.68,10.68,0,0,0,4.051-4.765,12.668,12.668,0,0,0,.827-3.684c0-.565.036-.639.718-1.314a8.02,8.02,0,0,0,.852-.946c.122-.233.109-.233-.511-.025-1.034.368-1.18.319-.669-.233A3.573,3.573,0,0,0,16.423.3c0-.037-.182.025-.389.135a6.787,6.787,0,0,1-1.071.418l-.657.209-.6-.405a4.951,4.951,0,0,0-1.034-.54,4.156,4.156,0,0,0-2.129.049A3.516,3.516,0,0,0,8.175,3.7Z" transform="translate(8.696 10.435)" fill="#fff"/>
</svg>
